<?xml version="1.0" encoding="UTF-8"?>
<svg version="1.1" xmlns="http://www.w3.org/2000/svg" width="1200" height="630">
<path d="M0 0 C1.18021929 0.00179127 1.18021929 0.00179127 2.3842814 0.00361872 C3.74551263 -0.00159127 3.74551263 -0.00159127 5.13424349 -0.00690651 C6.13822546 -0.00050006 7.14220743 0.00590638 8.17661309 0.01250696 C9.77032381 0.01088328 9.77032381 0.01088328 11.3962307 0.0092268 C14.98392657 0.00808786 18.57142629 0.02138962 22.159096 0.03460169 C24.72312382 0.03688586 27.28715252 0.03832015 29.85118127 0.0389657 C36.13338435 0.04223112 42.41551971 0.05639372 48.69769698 0.07405597 C56.12352622 0.09449495 63.54935822 0.10371266 70.97520837 0.11287838 C89.10742283 0.13599607 107.23955585 0.18240076 125.37170815 0.23411036 C130.00063499 0.24729985 134.62956322 0.25994225 139.25849175 0.27251673 C179.15901444 0.38143326 219.05935218 0.52877599 258.95968223 0.69287252 C269.58604472 0.73653071 280.21241214 0.77880529 290.8387835 0.82024622 C291.98753647 0.82472671 291.98753647 0.82472671 293.15949658 0.82929772 C297.00750386 0.84429947 300.85551122 0.85927995 304.70351863 0.87424994 C335.83227928 0.99537751 366.9610243 1.12011941 398.08976007 1.24749231 C396.1611321 4.57025766 394.5753123 6.90707403 391.52774835 9.2516427 C387.44345196 12.70085287 384.35766939 16.59523319 381.14624047 20.85230684 C345.70450127 67.72477427 345.70450127 67.72477427 320.06436944 71.85296106 C297.10017187 74.85519123 273.05566318 72.69588773 250.17384934 69.74557638 C246.52554459 69.19303252 246.52554459 69.19303252 243.08976007 70.24749231 C243.09051951 70.80035748 243.09127895 71.35322265 243.0920614 71.92284131 C243.13679541 104.6735508 243.17112198 137.42425263 243.19189072 170.17498581 C243.19439221 174.1054047 243.19698084 178.03582352 243.19962335 181.96624231 C243.20014797 182.74873414 243.20067259 183.53122597 243.20121311 184.33742967 C243.20992113 197.0155954 243.22569328 209.69374304 243.24406566 222.37189803 C243.26275367 235.37609891 243.27387446 248.38029031 243.27793705 261.38450408 C243.2806844 269.411969 243.28936878 277.43938277 243.305593 285.46683195 C243.31739197 291.61719224 243.31867419 297.76751334 243.31597543 303.9178834 C243.31652735 306.4446963 243.320528 308.97151107 243.32817101 311.49831247 C243.3380709 314.93892764 243.33574702 318.37932112 243.3302691 321.81994104 C243.33609478 322.82771813 243.34192046 323.83549522 243.34792268 324.87381101 C243.34394059 325.79442484 243.33995849 326.71503868 243.33585572 327.6635499 C243.33661516 328.45792483 243.3373746 329.25229976 243.33815706 330.07074666 C243.06050908 332.50382374 242.30249155 334.13701128 241.08976007 336.24749231 C240.39385262 335.50739923 239.69794518 334.76730616 238.98094964 334.00478601 C236.07906401 331.23729161 233.2235004 329.25651188 229.83072686 327.13079309 C204.263228 310.58240536 178.13233563 288.94397811 171.01352906 258.04618311 C167.2206759 239.45082312 166.48440701 220.48685274 166.52726007 201.55999231 C166.52793198 200.81400624 166.52860389 200.06802017 166.52929616 199.29942846 C166.62430569 163.95613503 169.05211343 130.40805651 195.18180108 103.93572474 C205.92854632 93.61776931 217.77730869 84.68150604 230.48912835 76.93969202 C232.70403584 75.49847842 234.46962915 74.32429526 236.08976007 72.24749231 C236.08976007 71.25749231 236.08976007 70.26749231 236.08976007 69.24749231 C234.84500673 69.34013251 234.84500673 69.34013251 233.57510686 69.43464422 C206.99850504 71.38016394 180.41439057 72.68165851 153.77726007 73.43499231 C152.27726173 73.47863979 152.27726173 73.47863979 150.7469604 73.52316904 C60.64752351 76.07552357 60.64752351 76.07552357 31.60704827 49.88132715 C26.98659545 45.44504561 22.81819369 40.7123731 18.77726007 35.74749231 C17.79763614 34.5457317 17.79763614 34.5457317 16.79822183 33.31969309 C8.93655715 23.51896673 2.07747955 13.28837467 -3.91023993 2.24749231 C-1.91023993 0.24749231 -1.91023993 0.24749231 0 0 Z " fill="#08D9F2" transform="translate(397.91023993492126,145.752507686615)"/>
<path d="M0 0 C3.96 0 7.92 0 12 0 C11.34 0.66 10.68 1.32 10 2 C9.70233432 3.9977614 9.70233432 3.9977614 9.75949097 6.32667351 C9.75674227 7.24083845 9.75399357 8.15500339 9.75116158 9.0968703 C9.7583515 10.10774459 9.76554142 11.11861889 9.77294922 12.16012573 C9.7726515 13.22890304 9.77235378 14.29768034 9.77204704 15.39884484 C9.7734434 19.00409351 9.78916105 22.60914195 9.8046875 26.21435547 C9.80852315 28.7894072 9.81145202 31.36446042 9.8135376 33.93951416 C9.81931895 39.49654569 9.83221069 45.05352431 9.84967041 50.61053085 C9.87474265 58.64944227 9.88692368 66.68833397 9.89553714 74.72727801 C9.90968228 87.77474388 9.93129401 100.82218504 9.95898438 113.86962891 C9.96146781 115.04167014 9.96146781 115.04167014 9.96400142 116.23738898 C9.97748939 122.57656939 9.99133753 128.91574901 10.00520706 135.25492859 C10.01731017 140.79316168 10.02927156 146.33139504 10.04101562 151.86962891 C10.04267188 152.64943469 10.04432813 153.42924047 10.04603457 154.23267673 C10.07339224 167.22789477 10.09291856 180.22311322 10.10683632 193.21835244 C10.11580736 201.23828645 10.13190527 209.25814693 10.15712595 217.27804662 C10.17594603 223.42102328 10.18466168 229.56397522 10.1896286 235.70697784 C10.19338366 238.23057185 10.20060732 240.75416335 10.21149445 243.27773666 C10.22585528 246.71385336 10.22800516 250.14976552 10.22705078 253.58590698 C10.2342407 254.59231983 10.24143063 255.59873268 10.24883842 256.63564289 C10.24608973 257.55502332 10.24334103 258.47440376 10.24050903 259.42164421 C10.24235262 260.214935 10.24419621 261.00822578 10.24609566 261.82555568 C9.9707335 264.25859204 9.21268546 265.8899173 8 268 C7.30409256 267.25990692 6.60818512 266.51981384 5.89118958 265.7572937 C2.98930394 262.98979929 0.13374033 261.00901957 -3.2590332 258.88330078 C-28.82653207 242.33491305 -54.95742443 220.6964858 -62.076231 189.7986908 C-65.86908416 171.2033308 -66.60535305 152.23936042 -66.5625 133.3125 C-66.56182809 132.56651393 -66.56115618 131.82052786 -66.56046391 131.05193615 C-66.46545437 95.70864272 -64.03764663 62.16056419 -37.90795898 35.68823242 C-27.16121374 25.370277 -15.31245137 16.43401372 -2.60063171 8.69219971 C-0.38572423 7.2509861 1.37986909 6.07680294 3 4 C3 3.01 3 2.02 3 1 C2.01 0.67 1.02 0.34 0 0 Z " fill="#E1D019" transform="translate(631,214)"/>
<path d="M0 0 C1.18021929 0.00179127 1.18021929 0.00179127 2.3842814 0.00361872 C3.74551263 -0.00159127 3.74551263 -0.00159127 5.13424349 -0.00690651 C6.13822546 -0.00050006 7.14220743 0.00590638 8.17661309 0.01250696 C9.77032381 0.01088328 9.77032381 0.01088328 11.3962307 0.0092268 C14.98392657 0.00808786 18.57142629 0.02138962 22.159096 0.03460169 C24.72312382 0.03688586 27.28715252 0.03832015 29.85118127 0.0389657 C36.13338435 0.04223112 42.41551971 0.05639372 48.69769698 0.07405597 C56.12352622 0.09449495 63.54935822 0.10371266 70.97520837 0.11287838 C89.10742283 0.13599607 107.23955585 0.18240076 125.37170815 0.23411036 C130.00063499 0.24729985 134.62956322 0.25994225 139.25849175 0.27251673 C179.15901444 0.38143326 219.05935218 0.52877599 258.95968223 0.69287252 C269.58604472 0.73653071 280.21241214 0.77880529 290.8387835 0.82024622 C291.98753647 0.82472671 291.98753647 0.82472671 293.15949658 0.82929772 C297.00750386 0.84429947 300.85551122 0.85927995 304.70351863 0.87424994 C335.83227928 0.99537751 366.9610243 1.12011941 398.08976007 1.24749231 C396.01236186 4.84089967 394.09564875 7.39010997 390.90226007 10.05999231 C390.18683038 10.66456263 389.47140069 11.26913294 388.73429132 11.89202356 C388.191596 12.33932825 387.64890069 12.78663294 387.08976007 13.24749231 C386.42976007 11.92749231 385.76976007 10.60749231 385.08976007 9.24749231 C386.40976007 9.24749231 387.72976007 9.24749231 389.08976007 9.24749231 C389.08976007 8.25749231 389.08976007 7.26749231 389.08976007 6.24749231 C389.74976007 6.24749231 390.40976007 6.24749231 391.08976007 6.24749231 C391.08976007 5.25749231 391.08976007 4.26749231 391.08976007 3.24749231 C305.94976007 3.24749231 220.80976007 3.24749231 133.08976007 3.24749231 C164.27476007 34.43249231 164.27476007 34.43249231 196.08976007 66.24749231 C196.74976007 66.90749231 197.40976007 67.56749231 198.08976007 68.24749231 C182.14885596 76.21794437 151.56220096 72.85391048 133.65226007 73.49749231 C132.89170831 73.52583784 132.13115656 73.55418337 131.34755778 73.58338785 C95.33796257 74.89369505 62.44114014 75.73074155 34.41487908 49.87816858 C29.77751037 45.38684946 25.47798962 40.64652836 21.27726007 35.74749231 C20.2460749 34.54583178 20.2460749 34.54583178 19.1940577 33.31989527 C10.80542504 23.42742528 3.14261317 13.12910797 -3.91023993 2.24749231 C-1.91023993 0.24749231 -1.91023993 0.24749231 0 0 Z " fill="#25BDCB" transform="translate(397.91023993492126,145.752507686615)"/>
<path d="M0 0 C3.96 0 7.92 0 12 0 C11.34 0.66 10.68 1.32 10 2 C9.69998814 4.00259432 9.69998814 4.00259432 9.75390434 6.33784676 C9.74992225 7.25447849 9.74594015 8.17111023 9.74183738 9.11551869 C9.74766307 10.12912146 9.75348875 11.14272423 9.75949097 12.18704224 C9.75692769 13.79444159 9.75692769 13.79444159 9.75431263 15.43431365 C9.751001 19.0488864 9.76204896 22.6632762 9.77294922 26.27783203 C9.77351297 28.85937496 9.77319748 31.4409182 9.77206421 34.02246094 C9.77101399 39.59259076 9.77730487 45.16267384 9.78853989 50.7327919 C9.80477341 58.78630414 9.81000068 66.83979371 9.81251587 74.89332055 C9.81689636 87.95867834 9.83021503 101.02401121 9.84912109 114.08935547 C9.86747076 126.78336461 9.88163173 139.47736699 9.89013672 152.17138672 C9.89066217 152.95345411 9.89118761 153.73552151 9.89172898 154.54128791 C9.894339 158.46457327 9.89686643 162.38785868 9.89935279 166.31114411 C9.92009629 198.87411423 9.95533142 231.43705378 10 264 C9.67 264 9.34 264 9 264 C9 220.77 9 177.54 9 133 C7.02 132.01 7.02 132.01 5 131 C2.8876255 129.06684418 0.86389105 127.11646954 -1.14550781 125.08154297 C-1.76054546 124.46674639 -2.37558311 123.85194981 -3.00925827 123.21852303 C-4.99525042 121.23104035 -6.97428298 119.23678666 -8.953125 117.2421875 C-10.17972196 116.01264931 -11.40677018 114.78356113 -12.63427734 113.55493164 C-17.17832364 109.00040736 -21.71363427 104.43717427 -26.25 99.875 C-36.3975 89.68625 -46.545 79.4975 -57 69 C-57.33 112.56 -57.66 156.12 -58 201 C-58.33 201 -58.66 201 -59 201 C-60.80188934 179.75043503 -62.0082708 158.50113823 -62.6875 137.1875 C-62.71292515 136.40987242 -62.73835031 135.63224483 -62.76454592 134.83105278 C-64.99026972 64.75334097 -64.99026972 64.75334097 -42.07319641 39.61808777 C-38.16295536 35.56327829 -34.01120832 31.85641498 -29.6875 28.25 C-28.9880917 27.66615414 -28.2886834 27.08230827 -27.5680809 26.48077011 C-19.62502333 19.94369257 -11.38497874 14.04208531 -2.60063171 8.69219971 C-0.38572423 7.2509861 1.37986909 6.07680294 3 4 C3 3.01 3 2.02 3 1 C2.01 0.67 1.02 0.34 0 0 Z " fill="#C69C22" transform="translate(631,214)"/>
<path d="M0 0 C0.97156981 0.00184359 1.94313961 0.00368717 2.94415092 0.00558662 C4.05756859 0.0028373 5.17098625 0.00008797 6.31814384 -0.00274467 C7.54525078 0.00444588 8.77235771 0.01163643 10.0366497 0.01904488 C11.96829475 0.0186068 11.96829475 0.0186068 13.93896294 0.01815987 C17.47597723 0.01758466 21.01285663 0.02936593 24.5498395 0.04330778 C28.24407491 0.05578733 31.93831321 0.05698344 35.63256645 0.0593586 C42.6307249 0.06558155 49.62882106 0.08200335 56.62695205 0.10205758 C64.59298079 0.12439126 72.55901247 0.13540363 80.52506471 0.14544845 C96.91421678 0.16636891 113.30330616 0.20156066 129.69241142 0.24609566 C127.77524299 4.42537709 124.92747538 7.26396984 121.68215752 10.45166206 C120.76000702 11.36943176 120.76000702 11.36943176 119.81922722 12.30574226 C118.48623423 13.63113412 117.15093598 14.95421063 115.81360817 16.2752285 C113.70001375 18.36330213 111.59272526 20.45755553 109.4869976 22.55356026 C105.01935592 26.99834913 100.54393669 31.43525628 96.06741142 35.87109566 C90.87403103 41.01735547 85.68384643 46.16675243 80.50200081 51.32462883 C78.42084266 53.39277381 76.33377516 55.45482992 74.24645805 57.51675606 C72.97863771 58.77731544 71.71109502 60.03815416 70.44387627 61.29931831 C69.85792183 61.87494011 69.27196739 62.4505619 68.66825676 63.04362679 C67.30449883 64.40702 65.99251422 65.82187325 64.69241142 67.24609566 C64.69241142 67.90609566 64.69241142 68.56609566 64.69241142 69.24609566 C60.32471256 67.57166936 57.49118865 64.31093712 54.27151299 61.052248 C53.63694679 60.41797386 53.0023806 59.78369972 52.34858513 59.13020515 C50.2552926 57.03552088 48.16917062 54.93384464 46.08303642 52.83203316 C44.63187389 51.37713995 43.18026875 49.9226881 41.72823906 48.46866035 C37.90979724 44.64258639 34.09739994 40.81054404 30.28622246 36.97723579 C26.39529764 33.06584362 22.49869714 29.1601148 18.60256767 25.25390816 C10.96027744 17.59017538 3.32435968 9.9201266 -4.30758858 2.24609566 C-2.30758858 0.24609566 -2.30758858 0.24609566 0 0 Z " fill="#0D899D" transform="translate(398.3075885772705,145.75390434265137)"/>
<path d="M0 0 C42.9 0 85.8 0 130 0 C128.0124626 3.97507481 126.13605678 5.93861124 123 9 C122.38125 9.804375 121.7625 10.60875 121.125 11.4375 C118.86842716 14.15866136 116.43782796 16.26868968 113.734375 18.52734375 C110.53825929 21.24116272 107.68094819 24.11476735 105.125 27.4375 C102.86842716 30.15866136 100.43782796 32.26868968 97.734375 34.52734375 C94.53825929 37.24116272 91.68094819 40.11476735 89.125 43.4375 C86.86526989 46.16246866 84.43142746 48.27497136 81.72265625 50.53515625 C79.3419369 52.55957747 77.18167174 54.76378647 75 57 C72.69 59.31 70.38 61.62 68 64 C132.35 64.495 132.35 64.495 198 65 C198 65.33 198 65.66 198 66 C180.92762299 66.16370543 163.85549179 66.28705027 146.78250885 66.3626852 C138.8547386 66.39874137 130.92745672 66.44787597 123 66.52807617 C116.08834928 66.59796622 109.17705232 66.6430356 102.26505804 66.65861946 C98.60682712 66.66772579 94.94960804 66.68904176 91.29170227 66.7401104 C87.20248019 66.79673476 83.11500372 66.79792173 79.02539062 66.79467773 C77.81985535 66.81984467 76.61432007 66.8450116 75.37225342 66.87094116 C69.73234958 66.82255703 65.95046747 66.58859097 61.57543945 62.83177185 C60.35907027 61.57787761 59.16563107 60.30119521 58 59 C56.95103445 57.98179532 55.89664973 56.96913367 54.83605957 55.96304321 C53.81074136 54.94351881 52.78799063 53.92140702 51.76757812 52.89697266 C51.20070282 52.33184967 50.63382751 51.76672668 50.04977417 51.18447876 C48.20777112 49.34681865 46.36938052 47.50559548 44.53125 45.6640625 C43.24245544 44.3759425 41.95351255 43.08797089 40.66442871 41.80014038 C37.98006317 39.11724097 35.29749464 36.43256132 32.61621094 33.74658203 C29.17169308 30.29632707 25.72265066 26.85063527 22.27228546 23.40622902 C19.6180499 20.75559415 16.96618467 18.10259823 14.31504822 15.44886398 C13.04306014 14.17620734 11.77032474 12.90429719 10.49684143 11.63313675 C8.72789313 9.8667112 6.96215317 8.09714164 5.19726562 6.32666016 C4.66749115 5.79890991 4.13771667 5.27115967 3.59188843 4.72741699 C0 1.11427074 0 1.11427074 0 0 Z " fill="#48DCDB" transform="translate(530,148)"/>
<path d="M0 0 C0 42.9 0 85.8 0 130 C-4.83873504 128.06450598 -7.42136687 126.0126864 -10.96777344 122.4362793 C-11.54235794 121.86855804 -12.11694244 121.30083679 -12.7089386 120.71591187 C-14.60015162 118.84295419 -16.4801171 116.95916617 -18.359375 115.07421875 C-19.67226189 113.76589353 -20.98552012 112.45794084 -22.2991333 111.15034485 C-25.04774493 108.41066133 -27.79061086 105.66537767 -30.52978516 102.91625977 C-34.04087926 99.39366389 -37.56759589 95.88719168 -41.09899521 92.38496685 C-43.81348197 89.68882081 -46.51860466 86.98343134 -49.22107697 84.27524757 C-50.51777521 82.97839592 -51.81758428 81.68464701 -53.1205368 80.39407921 C-54.9400398 78.58944712 -56.74633577 76.77254118 -58.54980469 74.9519043 C-59.09004776 74.42132919 -59.63029083 73.89075409 -60.18690491 73.34410095 C-62.27347847 71.2157004 -63.89442474 69.21729763 -65.19973755 66.53067017 C-64.87616324 62.43099114 -62.07012943 60.27932095 -59.25439453 57.55737305 C-58.63191833 56.9324144 -58.00944214 56.30745575 -57.36810303 55.66355896 C-55.30373412 53.59827057 -53.21878625 51.5551652 -51.1328125 49.51171875 C-49.69765058 48.085208 -48.26373613 46.6574412 -46.83102417 45.22846985 C-43.05361223 41.46830728 -39.25808354 37.72693999 -35.45898438 33.9887085 C-32.35294896 30.92629078 -29.25998464 27.85085824 -26.16763496 24.77463055 C-22.4936279 21.12018622 -18.81413434 17.47129301 -15.1328125 13.82421875 C-14.07154333 12.77258828 -14.07154333 12.77258828 -12.98883438 11.69971275 C-10.99694655 9.72869993 -9.00141636 7.76146362 -7.00439453 5.7956543 C-6.4079715 5.20506226 -5.81154846 4.61447021 -5.197052 4.00598145 C-1.1153241 0 -1.1153241 0 0 0 Z " fill="#EDFB09" transform="translate(639,349)"/>
<path d="M0 0 C4.21056883 1.64442791 7.02859318 4.75469233 10.14550781 7.90258789 C11.05346603 8.80769859 11.05346603 8.80769859 11.97976685 9.73109436 C13.97580325 11.72343095 15.96455709 13.7228674 17.953125 15.72265625 C19.33709868 17.10782196 20.72144214 18.4926183 22.10614014 19.87705994 C25.00420815 22.77669128 27.89888666 25.67965025 30.79101562 28.58520508 C34.50746674 32.31868543 38.23050665 36.04550924 41.95586014 39.77010441 C44.81276462 42.62728006 47.66706122 45.48704864 50.52046967 48.34771538 C51.89306995 49.72350795 53.26628569 51.09868678 54.64011383 52.47325325 C56.55330265 54.38859747 58.46316955 56.30719002 60.37207031 58.22680664 C60.94553192 58.79981506 61.51899353 59.37282349 62.10983276 59.9631958 C66 63.88552353 66 63.88552353 66 65 C23.1 65 -19.8 65 -64 65 C-56.43478261 56.17391304 -56.43478261 56.17391304 -54 54 C-53.34 54 -52.68 54 -52 54 C-51.7525 53.4225 -51.505 52.845 -51.25 52.25 C-49.81700012 49.67060021 -48.21575324 47.93878408 -46 46 C-45.34 46 -44.68 46 -44 46 C-43.7525 45.4225 -43.505 44.845 -43.25 44.25 C-41.81700012 41.67060021 -40.21575324 39.93878408 -38 38 C-37.34 38 -36.68 38 -36 38 C-35.7525 37.4225 -35.505 36.845 -35.25 36.25 C-33.81700012 33.67060021 -32.21575324 31.93878408 -30 30 C-29.34 30 -28.68 30 -28 30 C-27.7525 29.4225 -27.505 28.845 -27.25 28.25 C-25.81700012 25.67060021 -24.21575324 23.93878408 -22 22 C-21.34 22 -20.68 22 -20 22 C-19.7525 21.4225 -19.505 20.845 -19.25 20.25 C-17.81700012 17.67060021 -16.21575324 15.93878408 -14 14 C-13.34 14 -12.68 14 -12 14 C-11.7525 13.4225 -11.505 12.845 -11.25 12.25 C-9.81700012 9.67060021 -8.21575324 7.93878408 -6 6 C-5.34 6 -4.68 6 -4 6 C-3.566875 5.071875 -3.566875 5.071875 -3.125 4.125 C-2 2 -2 2 0 0 Z " fill="#26F5F5" transform="translate(661,148)"/>
<path d="M0 0 C3.96 0 7.92 0 12 0 C11.34 0.66 10.68 1.32 10 2 C9.69998814 4.00259432 9.69998814 4.00259432 9.75390434 6.33784676 C9.74992225 7.25447849 9.74594015 8.17111023 9.74183738 9.11551869 C9.74766307 10.12912146 9.75348875 11.14272423 9.75949097 12.18704224 C9.75778212 13.2586418 9.75607327 14.33024137 9.75431263 15.43431365 C9.751001 19.0488864 9.76204896 22.6632762 9.77294922 26.27783203 C9.77351297 28.85937496 9.77319748 31.4409182 9.77206421 34.02246094 C9.77101399 39.59259076 9.77730487 45.16267384 9.78853989 50.7327919 C9.80477341 58.78630414 9.81000068 66.83979371 9.81251587 74.89332055 C9.81689636 87.95867834 9.83021503 101.02401121 9.84912109 114.08935547 C9.86747076 126.78336461 9.88163173 139.47736699 9.89013672 152.17138672 C9.89092489 153.34448781 9.89092489 153.34448781 9.89172898 154.54128791 C9.894339 158.46457327 9.89686643 162.38785868 9.89935279 166.31114411 C9.92009629 198.87411423 9.95533142 231.43705378 10 264 C9.67 264 9.34 264 9 264 C9 220.77 9 177.54 9 133 C8.01 132.67 7.02 132.34 6 132 C6 130.35 6 128.7 6 127 C5.34 126.67 4.68 126.34 4 126 C4.48755925 125.1576008 4.48755925 125.1576008 4.98496819 124.29818344 C6.11975885 121.72884811 6.24672397 120.0257864 6.24050903 117.22906494 C6.24325836 116.27276688 6.24600769 115.31646881 6.24884033 114.33119202 C6.24164978 113.28893967 6.23445923 112.24668732 6.22705078 111.17285156 C6.22734283 110.07011398 6.22763489 108.9673764 6.22793579 107.83122253 C6.22654184 104.1842768 6.21097729 100.53753507 6.1953125 96.890625 C6.19158261 94.36285514 6.18873552 91.83508383 6.18673706 89.30731201 C6.17987956 83.33273062 6.16411469 77.35823687 6.14403808 71.3836906 C6.12167481 64.58083555 6.11068458 57.77797698 6.10064721 50.97509432 C6.07974831 36.98335565 6.04457501 22.99168184 6 9 C4.35 9.33 2.7 9.66 1 10 C1.66 7.03 2.32 4.06 3 1 C2.01 0.67 1.02 0.34 0 0 Z " fill="#574116" transform="translate(631,214)"/>
<path d="M0 0 C0 42.9 0 85.8 0 130 C-5.57916295 127.76833482 -6.55301827 126.53031884 -10 122 C-7.6875 120.4375 -7.6875 120.4375 -5 119 C-4.01 119.33 -3.02 119.66 -2 120 C-2.66 121.98 -3.32 123.96 -4 126 C-3.01 126 -2.02 126 -1 126 C-1.10714896 110.77958897 -1.21989403 95.55922657 -1.33933926 80.33890724 C-1.39466603 73.27217906 -1.44814713 66.20544582 -1.49731445 59.13867188 C-1.54473227 52.32409187 -1.59725214 45.50956665 -1.65294075 38.69504929 C-1.67338564 36.08984025 -1.69209512 33.48461702 -1.70907402 30.87938309 C-1.73307082 27.24196469 -1.76313182 23.60464479 -1.79467773 19.96728516 C-1.8004332 18.8804393 -1.80618866 17.79359344 -1.81211853 16.67381287 C-1.82190735 15.68660751 -1.83169617 14.69940216 -1.84178162 13.68228149 C-1.84823417 12.82132685 -1.85468672 11.9603722 -1.8613348 11.07332802 C-1.86998735 8.93791668 -1.86998735 8.93791668 -3 7 C-7.74006296 8.93113676 -10.80098114 12.44127548 -13.875 16.4375 C-16.13157284 19.15866136 -18.56217204 21.26868968 -21.265625 23.52734375 C-24.46174071 26.24116272 -27.31905181 29.11476735 -29.875 32.4375 C-32.13157284 35.15866136 -34.56217204 37.26868968 -37.265625 39.52734375 C-40.46174071 42.24116272 -43.31905181 45.11476735 -45.875 48.4375 C-47.68900192 50.6249729 -49.39752803 52.25608733 -51.5625 54.0625 C-55.30946189 57.08819235 -55.30946189 57.08819235 -58 61 C-57.16953416 63.57616923 -57.16953416 63.57616923 -56 66 C-56.33 66.99 -56.66 67.98 -57 69 C-57.33 69 -57.66 69 -58 69 C-58 70.65 -58 72.3 -58 74 C-63.66203378 69.78359186 -63.66203378 69.78359186 -64.94723511 66.80378723 C-65 64 -65 64 -62.69729614 60.96903992 C-61.56514516 59.81640286 -60.41601642 58.68030343 -59.25439453 57.55737305 C-58.63191833 56.9324144 -58.00944214 56.30745575 -57.36810303 55.66355896 C-55.30373412 53.59827057 -53.21878625 51.5551652 -51.1328125 49.51171875 C-49.69765058 48.085208 -48.26373613 46.6574412 -46.83102417 45.22846985 C-43.05361223 41.46830728 -39.25808354 37.72693999 -35.45898438 33.9887085 C-32.35294896 30.92629078 -29.25998464 27.85085824 -26.16763496 24.77463055 C-22.4936279 21.12018622 -18.81413434 17.47129301 -15.1328125 13.82421875 C-14.07154333 12.77258828 -14.07154333 12.77258828 -12.98883438 11.69971275 C-10.99694655 9.72869993 -9.00141636 7.76146362 -7.00439453 5.7956543 C-6.4079715 5.20506226 -5.81154846 4.61447021 -5.197052 4.00598145 C-1.1153241 0 -1.1153241 0 0 0 Z " fill="#F3F919" transform="translate(639,349)"/>
<path d="M0 0 C87.78 0 175.56 0 266 0 C263.56499082 4.05834864 262.24384412 5.94367131 258.8125 8.8125 C258.09707031 9.41707031 257.38164063 10.02164063 256.64453125 10.64453125 C256.10183594 11.09183594 255.55914063 11.53914062 255 12 C254.01 10.02 254.01 10.02 253 8 C254.32 8 255.64 8 257 8 C257 7.01 257 6.02 257 5 C257.66 5 258.32 5 259 5 C259 4.01 259 3.02 259 2 C258.45500162 2.00092179 257.91000324 2.00184359 257.34848976 2.00279331 C239.10733514 2.03307273 220.86617552 2.05168387 202.625 2.0625 C201.91409792 2.0629343 201.20319585 2.06336861 200.47075129 2.06381607 C152.62425637 2.09223595 104.78233416 1.89678354 56.9375 1.5 C56.21564294 1.49402628 55.49378588 1.48805257 54.75005436 1.48189783 C36.49995161 1.33068556 18.24993171 1.17067631 0 1 C0 0.67 0 0.34 0 0 Z " fill="#4DAEC9" transform="translate(530,147)"/>
<path d="M0 0 C7.875 6.75 7.875 6.75 11.4375 10.375 C12.11683594 11.06335938 12.79617188 11.75171875 13.49609375 12.4609375 C13.99238281 12.96882813 14.48867188 13.47671875 15 14 C11.07176899 14 9.93381106 12.48245551 7 10 C6.34 9.67 5.68 9.34 5 9 C4.67 8.01 4.34 7.02 4 6 C3.34 5.67 2.68 5.34 2 5 C2 47.9 2 90.8 2 135 C1.34 134.67 0.68 134.34 0 134 C0 89.78 0 45.56 0 0 Z " fill="#DBCB43" transform="translate(573,282)"/>
<path d="M0 0 C1.11341766 -0.00137466 2.22683533 -0.00274933 3.37399292 -0.00416565 C4.60109985 -0.00057037 5.82820679 0.0030249 7.09249878 0.00672913 C9.02414383 0.00651009 9.02414383 0.00651009 10.99481201 0.00628662 C14.53178473 0.00599902 18.06872371 0.01188969 21.60568857 0.01886058 C25.29992916 0.02510036 28.99417048 0.02569841 32.68841553 0.02688599 C39.68655154 0.02999745 46.68467198 0.03820837 53.68280113 0.04823548 C61.64883648 0.05940233 69.61487256 0.06490851 77.58091378 0.06993091 C93.97003848 0.08039112 110.3591475 0.09798701 126.7482605 0.12025452 C126.7482605 0.78025452 126.7482605 1.44025452 126.7482605 2.12025452 C83.8482605 2.12025452 40.9482605 2.12025452 -3.2517395 2.12025452 C-3.5817395 3.11025452 -3.9117395 4.10025452 -4.2517395 5.12025452 C-5.2417395 3.80025452 -6.2317395 2.48025452 -7.2517395 1.12025452 C-4.68549994 -0.16286527 -2.8741922 -0.00272694 0 0 Z " fill="#14335B" transform="translate(401.2517395019531,145.87974548339844)"/>
<path d="M0 0 C0.495 1.485 0.495 1.485 1 3 C0.67 3.66 0.34 4.32 0 5 C-0.99 5 -1.98 5 -3 5 C-3.0825 5.7425 -3.165 6.485 -3.25 7.25 C-4.15437599 10.56604529 -5.3714526 11.83531391 -8 14 C-8.99 14.33 -9.98 14.66 -11 15 C-12.00642948 16.32848691 -13.00692179 17.66150329 -14 19 C-14.66 19 -15.32 19 -16 19 C-16 19.66 -16 20.32 -16 21 C-16.99 21 -17.98 21 -19 21 C-19.0825 21.7425 -19.165 22.485 -19.25 23.25 C-20.15437599 26.56604529 -21.3714526 27.83531391 -24 30 C-24.99 30.33 -25.98 30.66 -27 31 C-28.00642948 32.32848691 -29.00692179 33.66150329 -30 35 C-30.66 35 -31.32 35 -32 35 C-32 35.66 -32 36.32 -32 37 C-32.99 37 -33.98 37 -35 37 C-35.04125 37.721875 -35.0825 38.44375 -35.125 39.1875 C-36.39881294 43.28189875 -38.53428325 44.52448804 -42 47 C-42.66 47 -43.32 47 -44 47 C-44 47.99 -44 48.98 -44 50 C-45.98 50.495 -45.98 50.495 -48 51 C-48 51.66 -48 52.32 -48 53 C-50.475 53.495 -50.475 53.495 -53 54 C-47.75179943 47.63491433 -41.97528548 41.84677025 -36.1328125 36.03515625 C-35.08741675 34.99162921 -34.04224425 33.94787848 -32.99728394 32.90391541 C-30.2672716 30.17769255 -27.53426807 27.45448819 -24.80059814 24.73193359 C-22.00324846 21.94487541 -19.20878299 19.15492854 -16.4140625 16.36523438 C-10.94550306 10.90734919 -5.47377555 5.45265441 0 0 Z " fill="#8D6E2D" transform="translate(627,225)"/>
<path d="M0 0 C0.33 0 0.66 0 1 0 C1 42.9 1 85.8 1 130 C-4.57916295 127.76833482 -5.55301827 126.53031884 -9 122 C-6.6875 120.4375 -6.6875 120.4375 -4 119 C-3.01 119.33 -2.02 119.66 -1 120 C-1.66 121.98 -2.32 123.96 -3 126 C-2.01 126 -1.02 126 0 126 C0 85.41 0 44.82 0 3 C-0.66 2.67 -1.32 2.34 -2 2 C-1.34 1.34 -0.68 0.68 0 0 Z " fill="#ECF725" transform="translate(638,349)"/>
<path d="M0 0 C3.96 0 7.92 0 12 0 C11.34 0.66 10.68 1.32 10 2 C9.68524516 4.39133143 9.68524516 4.39133143 9.7215271 7.21377563 C9.71036362 8.31877914 9.69920013 9.42378265 9.68769836 10.56227112 C9.68553818 11.78002731 9.68337799 12.99778351 9.68115234 14.25244141 C9.67110672 15.5304512 9.6610611 16.808461 9.65071106 18.12519836 C9.62334571 21.63528573 9.60824243 25.14533283 9.59528303 28.65549898 C9.57968095 32.32176124 9.55288149 35.98794089 9.5272522 39.65414429 C9.48041247 46.59911788 9.44369359 53.54410692 9.41057932 60.48915803 C9.37239453 68.39478812 9.3229749 76.30033535 9.27259517 84.20589566 C9.16919811 100.47053766 9.0799631 116.73522556 9 133 C8.67 133 8.34 133 8 133 C8 89.77 8 46.54 8 2 C7.01 2.99 6.02 3.98 5 5 C4.34 4.67 3.68 4.34 3 4 C3 3.01 3 2.02 3 1 C2.01 0.67 1.02 0.34 0 0 Z " fill="#8F6E32" transform="translate(631,214)"/>
<path d="M0 0 C-2.51175164 1.25587582 -4.212369 1.12304933 -7.0239563 1.12025452 C-8.08688904 1.12162918 -9.14982178 1.12300385 -10.2449646 1.12442017 C-11.4159671 1.12082489 -12.5869696 1.11722961 -13.79345703 1.11352539 C-15.02269897 1.11367142 -16.25194092 1.11381744 -17.51843262 1.1139679 C-20.89426342 1.11338954 -24.27003348 1.10836537 -27.64585352 1.10139394 C-31.17193073 1.09515358 -34.6980087 1.09455606 -38.22409058 1.09336853 C-44.90348324 1.09025723 -51.58285959 1.08204655 -58.26224506 1.07201904 C-65.86553025 1.06085166 -73.46881621 1.05534588 -81.07210755 1.05032361 C-96.71474783 1.03986378 -112.35737181 1.02226822 -128 1 C-128.33 0.34 -128.66 -0.32 -129 -1 C-112.62355963 -1.17721976 -96.24704969 -1.3428951 -79.87035656 -1.49477577 C-72.26661298 -1.56556444 -64.66294185 -1.6401501 -57.05932617 -1.72363281 C-50.4330832 -1.79637503 -43.80681467 -1.86203559 -37.18041784 -1.91914403 C-33.67082411 -1.94963948 -30.16134644 -1.98371349 -26.65187645 -2.02626419 C-22.73698222 -2.07359793 -18.82204879 -2.10512309 -14.90698242 -2.13525391 C-13.7395752 -2.1517952 -12.57216797 -2.16833649 -11.36938477 -2.18537903 C-10.30507736 -2.19104385 -9.24076996 -2.19670868 -8.14421082 -2.20254517 C-7.21780887 -2.2117631 -6.29140692 -2.22098103 -5.33693218 -2.23047829 C-3 -2 -3 -2 0 0 Z " fill="#37A3BB" transform="translate(596,214)"/>
<path d="M0 0 C42.57 0 85.14 0 129 0 C129 0.33 129 0.66 129 1 C66.63 1.495 66.63 1.495 3 2 C3.33 3.65 3.66 5.3 4 7 C2 5.75 2 5.75 0 4 C0 2.68 0 1.36 0 0 Z " fill="#1A8197" transform="translate(398,148)"/>
<path d="M0 0 C0.99 0 1.98 0 3 0 C3 0.66 3 1.32 3 2 C67.35 2.495 67.35 2.495 133 3 C133 3.33 133 3.66 133 4 C89.44 4 45.88 4 1 4 C0.67 2.68 0.34 1.36 0 0 Z " fill="#40D3DF" transform="translate(595,210)"/>
<path d="M0 0 C41.58 0 83.16 0 126 0 C126 0.33 126 0.66 126 1 C110.01460482 1.130532 94.02920851 1.26092484 78.04381084 1.39115143 C70.62173598 1.45161933 63.1996615 1.512133 55.77758789 1.57275391 C49.30949899 1.62558288 42.8414094 1.6783265 36.37331897 1.73096704 C32.94764169 1.75884991 29.52196477 1.7867759 26.09628868 1.81480408 C22.27472413 1.84606973 18.45315804 1.87714482 14.6315918 1.90820312 C12.92255928 1.92222923 12.92255928 1.92222923 11.17900085 1.9365387 C9.62040344 1.94915993 9.62040344 1.94915993 8.03031921 1.96203613 C6.67390084 1.97309765 6.67390084 1.97309765 5.29008007 1.98438263 C3.52675337 1.99640777 1.76336771 2 0 2 C0 1.34 0 0.68 0 0 Z " fill="#1DCFEC" transform="translate(664,148)"/>
<path d="M0 0 C0.99 0.66 1.98 1.32 3 2 C2.67 2.99 2.34 3.98 2 5 C0.68 5 -0.64 5 -2 5 C-1.76933838 5.74725342 -1.53867676 6.49450684 -1.30102539 7.2644043 C-1 10 -1 10 -2.26342773 11.94458008 C-2.89708252 12.54681396 -3.5307373 13.14904785 -4.18359375 13.76953125 C-4.86357422 14.43017578 -5.54355469 15.09082031 -6.24414062 15.77148438 C-6.96794922 16.44501953 -7.69175781 17.11855469 -8.4375 17.8125 C-9.15744141 18.50537109 -9.87738281 19.19824219 -10.61914062 19.91210938 C-12.40007996 21.62228291 -14.19346102 23.31695799 -16 25 C-16.66 23.68 -17.32 22.36 -18 21 C-17.01 21 -16.02 21 -15 21 C-15.33 20.01 -15.66 19.02 -16 18 C-15.34 17.67 -14.68 17.34 -14 17 C-13.01 17.33 -12.02 17.66 -11 18 C-11.33 16.35 -11.66 14.7 -12 13 C-11.01 13 -10.02 13 -9 13 C-9 12.34 -9 11.68 -9 11 C-8.34 10.67 -7.68 10.34 -7 10 C-7 8.35 -7 6.7 -7 5 C-6.030625 4.54625 -5.06125 4.0925 -4.0625 3.625 C-0.92920418 2.34213779 -0.92920418 2.34213779 0 0 Z " fill="#0FC9E7" transform="translate(785,150)"/>
<path d="M0 0 C1.32 0.33 2.64 0.66 4 1 C-2.27 7.27 -8.54 13.54 -15 20 C-15.33 18.68 -15.66 17.36 -16 16 C-15.01 15.67 -14.02 15.34 -13 15 C-13 14.01 -13 13.02 -13 12 C-12.01 12 -11.02 12 -10 12 C-10.33 11.01 -10.66 10.02 -11 9 C-10.34 8.67 -9.68 8.34 -9 8 C-8.01 8.33 -7.02 8.66 -6 9 C-6.33 7.35 -6.66 5.7 -7 4 C-6.01 4 -5.02 4 -4 4 C-4 3.34 -4 2.68 -4 2 C-2.68 2.33 -1.36 2.66 0 3 C0 2.01 0 1.02 0 0 Z " fill="#13ACCB" transform="translate(748,191)"/>
<path d="M0 0 C9.24 0 18.48 0 28 0 C25.56499082 4.05834864 24.24384412 5.94367131 20.8125 8.8125 C20.09707031 9.41707031 19.38164063 10.02164063 18.64453125 10.64453125 C18.10183594 11.09183594 17.55914063 11.53914062 17 12 C16.34 10.68 15.68 9.36 15 8 C16.32 8 17.64 8 19 8 C19 7.01 19 6.02 19 5 C19.66 5 20.32 5 21 5 C21 4.01 21 3.02 21 2 C14.07 1.67 7.14 1.34 0 1 C0 0.67 0 0.34 0 0 Z " fill="#32AACF" transform="translate(768,147)"/>
<path d="M0 0 C1.32 0.33 2.64 0.66 4 1 C-0.95 5.95 -5.9 10.9 -11 16 C-11.66 14.68 -12.32 13.36 -13 12 C-12.01 12 -11.02 12 -10 12 C-10.33 11.01 -10.66 10.02 -11 9 C-10.34 8.67 -9.68 8.34 -9 8 C-8.01 8.33 -7.02 8.66 -6 9 C-6.33 7.35 -6.66 5.7 -7 4 C-6.01 4 -5.02 4 -4 4 C-4 3.34 -4 2.68 -4 2 C-2.68 2.33 -1.36 2.66 0 3 C0 2.01 0 1.02 0 0 Z " fill="#13AECE" transform="translate(764,175)"/>
<path d="M0 0 C1.32 0.66 2.64 1.32 4 2 C0.32167983 6.52615993 -3.41086363 10.39424999 -8 14 C-8.33 12.68 -8.66 11.36 -9 10 C-8.01 10 -7.02 10 -6 10 C-6.33 9.01 -6.66 8.02 -7 7 C-6.34 6.67 -5.68 6.34 -5 6 C-4.01 6.33 -3.02 6.66 -2 7 C-2.33 5.35 -2.66 3.7 -3 2 C-2.01 2 -1.02 2 0 2 C0 1.34 0 0.68 0 0 Z " fill="#10B1D1" transform="translate(776,161)"/>
<path d="M0 0 C1.12148438 0.04833984 2.24296875 0.09667969 3.3984375 0.14648438 C5.161875 0.2305957 5.161875 0.2305957 6.9609375 0.31640625 C8.73597656 0.3947168 8.73597656 0.3947168 10.546875 0.47460938 C13.47681311 0.60456631 16.40643423 0.73954153 19.3359375 0.87890625 C19.3359375 1.20890625 19.3359375 1.53890625 19.3359375 1.87890625 C11.7459375 1.87890625 4.1559375 1.87890625 -3.6640625 1.87890625 C-3.9940625 2.86890625 -4.3240625 3.85890625 -4.6640625 4.87890625 C-5.6540625 3.55890625 -6.6440625 2.23890625 -7.6640625 0.87890625 C-4.96635992 -0.46994504 -3.01132875 -0.13687858 0 0 Z " fill="#2A6A8A" transform="translate(401.6640625,146.12109375)"/>
<path d="M0 0 C0.99 0.33 1.98 0.66 3 1 C2.34 2.98 1.68 4.96 1 7 C1.99 7 2.98 7 4 7 C3.67 7.99 3.34 8.98 3 10 C-0.7952131 8.50902342 -2.61042731 6.24299151 -5 3 C-2.6875 1.4375 -2.6875 1.4375 0 0 Z " fill="#BFC81D" transform="translate(634,468)"/>
<path d="M0 0 C5.29012124 4.40843437 10.18808428 9.07559794 15 14 C11.40239524 14 10.7784377 13.10487704 8 11 C5.85266073 10.29485154 5.85266073 10.29485154 4 10 C3.9175 9.2575 3.835 8.515 3.75 7.75 C2.8603054 4.48778646 1.51496251 3.19045122 -1 1 C-0.67 0.67 -0.34 0.34 0 0 Z " fill="#E5CE27" transform="translate(621,330)"/>
<path d="M0 0 C0.33 1.32 0.66 2.64 1 4 C2.32 4.33 3.64 4.66 5 5 C2.69 7.31 0.38 9.62 -2 12 C-3.01527342 7.93890631 -3.05430484 7.33033162 -1.5625 3.75 C-1.27503906 3.04359375 -0.98757813 2.3371875 -0.69140625 1.609375 C-0.46324219 1.07828125 -0.23507812 0.5471875 0 0 Z " fill="#D7CD14" transform="translate(577,401)"/>
<path d="M0 0 C2.5 1.25 2.5 1.25 4.5 4.25 C4.125 6.4375 4.125 6.4375 3.5 8.25 C2.35073734 7.29578192 1.20569459 6.33647955 0.0625 5.375 C-0.57558594 4.84132813 -1.21367188 4.30765625 -1.87109375 3.7578125 C-3.5 2.25 -3.5 2.25 -4.5 0.25 C-2.5 -0.75 -2.5 -0.75 0 0 Z " fill="#C4A119" transform="translate(610.5,313.75)"/>
<path d="M0 0 C2.5 1.25 2.5 1.25 4.5 4.25 C4.125 6.4375 4.125 6.4375 3.5 8.25 C2.35073734 7.29578192 1.20569459 6.33647955 0.0625 5.375 C-0.57558594 4.84132813 -1.21367188 4.30765625 -1.87109375 3.7578125 C-3.5 2.25 -3.5 2.25 -4.5 0.25 C-2.5 -0.75 -2.5 -0.75 0 0 Z " fill="#C4A119" transform="translate(594.5,297.75)"/>
<path d="M0 0 C3.96 0 7.92 0 12 0 C11.34 0.66 10.68 1.32 10 2 C9.83322718 5.58343976 9.83322718 5.58343976 10 9 C9.01 9.495 9.01 9.495 8 10 C8 7.36 8 4.72 8 2 C7.01 2.99 6.02 3.98 5 5 C4.34 4.67 3.68 4.34 3 4 C3 3.01 3 2.02 3 1 C2.01 0.67 1.02 0.34 0 0 Z " fill="#574628" transform="translate(631,214)"/>
<path d="M0 0 C2.97 0.495 2.97 0.495 6 1 C5.67 1.99 5.34 2.98 5 4 C4.67 4 4.34 4 4 4 C4 5.65 4 7.3 4 9 C2.02 7.35 0.04 5.7 -2 4 C-1.34 3.67 -0.68 3.34 0 3 C0 2.01 0 1.02 0 0 Z " fill="#C5CD17" transform="translate(577,414)"/>
<path d="M0 0 C5.29012124 4.40843437 10.18808428 9.07559794 15 14 C11.07176899 14 9.93381106 12.48245551 7 10 C6.34 9.67 5.68 9.34 5 9 C3.9935725 7.33720673 2.99414593 5.67016516 2 4 C0.41754725 2.24850835 0.41754725 2.24850835 -1 1 C-0.67 0.67 -0.34 0.34 0 0 Z " fill="#E5CE2A" transform="translate(605,314)"/>
<path d="M0 0 C5.29012124 4.40843437 10.18808428 9.07559794 15 14 C11.07176899 14 9.93381106 12.48245551 7 10 C6.34 9.67 5.68 9.34 5 9 C3.9935725 7.33720673 2.99414593 5.67016516 2 4 C0.41754725 2.24850835 0.41754725 2.24850835 -1 1 C-0.67 0.67 -0.34 0.34 0 0 Z " fill="#E5CE2A" transform="translate(589,298)"/>
<path d="M0 0 C0.66 0 1.32 0 2 0 C3.7265625 1.75 3.7265625 1.75 5.625 4 C6.25664063 4.7425 6.88828125 5.485 7.5390625 6.25 C8.02117188 6.8275 8.50328125 7.405 9 8 C8.01 8.66 7.02 9.32 6 10 C3.33333333 7.33333333 0.66666667 4.66666667 -2 2 C-1.34 1.34 -0.68 0.68 0 0 Z " fill="#27B4C0" transform="translate(528,147)"/>
<path d="M0 0 C1.32 0.33 2.64 0.66 4 1 C4 1.66 4 2.32 4 3 C2.25 4.7265625 2.25 4.7265625 0 6.625 C-0.7425 7.25664062 -1.485 7.88828125 -2.25 8.5390625 C-2.8275 9.02117187 -3.405 9.50328125 -4 10 C-4.66 8.68 -5.32 7.36 -6 6 C-4.68 6 -3.36 6 -2 6 C-2 5.01 -2 4.02 -2 3 C-1.34 3 -0.68 3 0 3 C0 2.01 0 1.02 0 0 Z " fill="#159DB9" transform="translate(789,149)"/>
<path d="M0 0 C-3.06533164 1.53266582 -6.26754272 1.10276471 -9.625 1.0625 C-10.33140625 1.05798828 -11.0378125 1.05347656 -11.765625 1.04882812 C-13.51045275 1.03703875 -15.255237 1.01910324 -17 1 C-14.36200572 -1.63799428 -12.73742439 -1.44709714 -9.0625 -1.75 C-8.00160156 -1.84796875 -6.94070313 -1.9459375 -5.84765625 -2.046875 C-3 -2 -3 -2 0 0 Z " fill="#1E5A68" transform="translate(596,214)"/>
<path d="M0 0 C5 2 5 2 10 4 C9.01 5.32 8.02 6.64 7 8 C4.61746439 6.80873219 3.87811124 5.61305574 2.375 3.4375 C1.92898438 2.79683594 1.48296875 2.15617188 1.0234375 1.49609375 C0.68570313 1.00238281 0.34796875 0.50867188 0 0 Z " fill="#0DADC6" transform="translate(722,207)"/>
<path d="M0 0 C2.0625 0.4375 2.0625 0.4375 4 1 C2.60667426 4.36720387 1.0210714 5.9859524 -2 8 C-2.33 6.68 -2.66 5.36 -3 4 C-2.01 4 -1.02 4 0 4 C-0.33 3.01 -0.66 2.02 -1 1 C-0.67 0.67 -0.34 0.34 0 0 Z " fill="#14A9C8" transform="translate(770,167)"/>
<path d="M0 0 C1.32 0.33 2.64 0.66 4 1 C0.535 3.97 0.535 3.97 -3 7 C-3.33 5.35 -3.66 3.7 -4 2 C-2.68 2.33 -1.36 2.66 0 3 C0 2.01 0 1.02 0 0 Z " fill="#12A1C1" transform="translate(748,191)"/>
<path d="M0 0 C1.32 0.33 2.64 0.66 4 1 C0.535 3.97 0.535 3.97 -3 7 C-3.33 5.35 -3.66 3.7 -4 2 C-2.68 2.33 -1.36 2.66 0 3 C0 2.01 0 1.02 0 0 Z " fill="#12A1C1" transform="translate(764,175)"/>
<path d="M0 0 C2 3 2 3 1.625 5.1875 C1.41875 5.785625 1.2125 6.38375 1 7 C-0.65 5.02 -2.3 3.04 -4 1 C-2.68 0.67 -1.36 0.34 0 0 Z " fill="#A4AA20" transform="translate(627,464)"/>
<path d="M0 0 C1.98 0 3.96 0 6 0 C6 1.98 6 3.96 6 6 C3.97945196 4.35830472 1.97956942 2.69088222 0 1 C0 0.67 0 0.34 0 0 Z " fill="#115C7A" transform="translate(448,201)"/>
<path d="M0 0 C1.98 0 3.96 0 6 0 C6 1.98 6 3.96 6 6 C3.97945196 4.35830472 1.97956942 2.69088222 0 1 C0 0.67 0 0.34 0 0 Z " fill="#115C7A" transform="translate(432,185)"/>
<path d="M0 0 C1.22589844 0.01353516 1.22589844 0.01353516 2.4765625 0.02734375 C3.41628906 0.04474609 3.41628906 0.04474609 4.375 0.0625 C4.375 0.3925 4.375 0.7225 4.375 1.0625 C2.065 1.3925 -0.245 1.7225 -2.625 2.0625 C-2.955 3.0525 -3.285 4.0425 -3.625 5.0625 C-4.615 3.7425 -5.605 2.4225 -6.625 1.0625 C-4.21954362 -0.14022819 -2.67503047 -0.03821472 0 0 Z " fill="#133045" transform="translate(400.625,145.9375)"/>
<path d="M0 0 C2.64 0 5.28 0 8 0 C6.515 2.475 6.515 2.475 5 5 C4.34 4.67 3.68 4.34 3 4 C3 3.01 3 2.02 3 1 C2.01 0.67 1.02 0.34 0 0 Z " fill="#130E24" transform="translate(631,214)"/>
<path d="M0 0 C2.97 0.495 2.97 0.495 6 1 C6 2.65 6 4.3 6 6 C3.97945196 4.35830472 1.97956942 2.69088222 0 1 C0 0.67 0 0.34 0 0 Z " fill="#979C20" transform="translate(607,449)"/>
<path d="M0 0 C2.97 0.495 2.97 0.495 6 1 C6 2.65 6 4.3 6 6 C3.97945196 4.35830472 1.97956942 2.69088222 0 1 C0 0.67 0 0.34 0 0 Z " fill="#969C20" transform="translate(591,433)"/>
<path d="M0 0 C3.3 0 6.6 0 10 0 C9.01 1.485 9.01 1.485 8 3 C5.36 2.34 2.72 1.68 0 1 C0 0.67 0 0.34 0 0 Z " fill="#3399C1" transform="translate(786,147)"/>
</svg>
